<svg width="39" height="39" fill="none" xmlns="http://www.w3.org/2000/svg"><path d="M24.984 4.97H22.7v3.961h2.285v-3.96zm4.571 0H27.27v3.961h2.285v-3.96zm-9.142 0h-2.285v3.961h2.285v-3.96zm4.571 6.246H22.7v3.961h2.285v-3.96zm4.571 0H27.27v3.961h2.285v-3.96zm-9.142 0h-2.285v3.961h2.285v-3.96zm-8.912 1.625H9.216v3.254h2.285V12.84zm0 5.539H9.216v3.253h2.285V18.38zm0 5.539H9.216v3.253h2.285V23.92zm0 5.538H9.216v3.254h2.285v-3.254zm13.483-11.995H22.7v3.962h2.285v-3.962zm4.571 0H27.27v3.962h2.285v-3.962zm-9.142 0h-2.285v3.962h2.285v-3.962zm4.571 6.247H22.7v3.96h2.285v-3.96zm4.571 0H27.27v3.96h2.285v-3.96zm-9.142 0h-2.285v3.96h2.285v-3.96zm9.142 6.246H27.27v3.96h2.285v-3.96zm-9.142 0h-2.285v3.96h2.285v-3.96z" fill="#E3CEA3"/><path d="M34.125 36.696V.02H13.558v8.19H4.875v28.485H0v2.285h39v-2.285h-4.875zM31.84 2.304v34.392h-6.856v-6.74H22.7v6.74h-6.856V2.304H31.84zM7.16 10.496h6.398v26.2H7.16v-26.2z" fill="#E3CEA3"/></svg>