<svg width="16" height="12" fill="none" xmlns="http://www.w3.org/2000/svg"><path d="M15.653 3.63H14.48a.347.347 0 00-.24.096l-.25.24c-.422-.977-1.028-1.943-1.846-2.943a2.31 2.31 0 00-1.795-.85H5.651a2.31 2.31 0 00-1.794.85c-.844 1.031-1.438 1.974-1.85 2.94l-.247-.237a.347.347 0 00-.24-.096H.347A.347.347 0 000 3.976v.803c0 .183.142.334.325.346L1.53 5.2c-.182.533-.325 1.327-.325 2.446 0 .97.194 1.609.532 2.022v1.87c0 .16.13.29.29.29h1.335c.16 0 .29-.13.29-.29v-1.161h8.694v1.16c0 .16.13.29.29.29h1.335c.16 0 .29-.13.29-.29V9.668c.338-.413.532-1.051.532-2.022 0-1.12-.143-1.913-.325-2.446l1.206-.075A.347.347 0 0016 4.779v-.803a.347.347 0 00-.347-.346zM4.848 1.833c.198-.242.491-.381.804-.381h4.698c.313 0 .606.139.804.381.572.7 1.024 1.37 1.374 2.036l-9.062.002c.342-.652.797-1.322 1.382-2.038zM3.86 8.957c-.665 0-1.204-.217-1.204-.744 0-.526.196-.953.86-.953.665 0 1.547.427 1.547.953 0 .527-.539.744-1.203.744zm5.401-.11H6.74a.69.69 0 01-.69-.69c0-.106.087-.192.193-.192h3.516c.106 0 .193.086.193.193 0 .38-.31.69-.69.69zm2.88.11c-.665 0-1.204-.217-1.204-.744 0-.526.882-.953 1.547-.953.664 0 .86.427.86.953 0 .527-.539.744-1.204.744z" fill="#9E7B56"/></svg>