<svg width="60" height="60" fill="none" xmlns="http://www.w3.org/2000/svg"><g clip-path="url(#clip0)" fill="#E3CEA3"><path d="M21.85 28.067c-.5 1.433-.997 2.868-1.495 4.301-.263.758.938 1.084 1.199.331l1.494-4.302c.264-.757-.938-1.083-1.199-.33zm-3.198 16.741c2.352.096 4.113-1.69 4.375-3.914a1.05 1.05 0 00.031-.309 1.027 1.027 0 00-.058-.41c-.295-2.107-1.927-3.822-4.174-3.822-2.3 0-4.232 1.935-4.232 4.232 0 2.237 1.827 4.133 4.058 4.223zm2.333-4.223c-.149 2.767-4.318 2.79-4.318 0 0-2.792 4.17-2.767 4.318 0zm20.001 4.223c2.353.096 4.114-1.69 4.376-3.914.022-.095.036-.195.03-.309a1.025 1.025 0 00-.058-.41c-.295-2.107-1.926-3.822-4.174-3.822-2.299 0-4.231 1.935-4.231 4.232 0 2.237 1.826 4.133 4.057 4.223zm2.334-4.223c-.15 2.767-4.319 2.79-4.319 0 0-2.792 4.17-2.767 4.319 0z"/><path d="M59.507 26.116l-24.668-14.97c-1.072-.651-2.197-1.518-3.431-1.833-2.015-.515-3.617.236-5.253 1.23l-13.645 8.28L.492 26.116c-1.139.691-.098 2.484 1.047 1.79 8.006-4.86 16.013-9.717 24.018-14.576.922-.56 1.85-1.268 2.833-1.72 2.041-.937 3.393.106 5.01 1.088l13.745 8.34c3.771 2.29 7.543 4.578 11.316 6.868 1.143.694 2.186-1.098 1.046-1.79z"/><path d="M54.476 50.78h-7.482c.102-.128.199-.262.277-.41.454-.844.31-1.896.305-2.826a3.52 3.52 0 002.316-3.297v-7.323c0-1.563-1.03-2.876-2.442-3.336l-3.718-9.76c-.639-1.677-2.545-2.991-4.34-2.991H20.607c-1.795 0-3.702 1.313-4.341 2.99l-3.717 9.76c-1.413.461-2.442 1.774-2.442 3.337v7.323c0 1.55 1.012 2.855 2.405 3.325-.008.922-.144 1.962.305 2.799.079.147.175.281.278.41H6.167c-1.334 0-1.336 2.072 0 2.072h48.309c1.333 0 1.336-2.072 0-2.072zm-10.538-3.01h1.576c.05.79.22 2.022-.788 2.022-1.007 0-.838-1.233-.788-2.021zM18.203 24.567c.336-.883 1.46-1.657 2.404-1.657h18.785c.944 0 2.068.774 2.404 1.657L45.16 33.4h-1.82l-2.23-6.444c-.59-1.71-2.47-3.049-4.28-3.049H23.17c-1.81 0-3.69 1.339-4.283 3.047L16.65 33.4h-1.811l3.365-8.834zM41.145 33.4H18.843l2.002-5.766c.306-.881 1.392-1.654 2.325-1.654h13.66c.932 0 2.016.773 2.32 1.654l1.995 5.766zm-28.966 3.523c0-.8.651-1.45 1.451-1.45h32.738c.8 0 1.451.65 1.451 1.45v7.323c0 .8-.65 1.45-1.45 1.45H13.63c-.8 0-1.45-.65-1.45-1.45v-7.323zm3.184 12.87c-1.007 0-.839-1.233-.788-2.022h1.575c.052.79.22 2.021-.787 2.021zm2.545.578c.417-.778.33-1.73.309-2.6h23.656c-.021.871-.11 1.823.308 2.6.079.147.175.281.278.41H17.63c.102-.129.198-.263.277-.41z"/></g><defs><clipPath id="clip0"><path fill="#fff" d="M0 0h60v60H0z"/></clipPath></defs></svg>