<svg width="49" height="49" fill="none" xmlns="http://www.w3.org/2000/svg"><g clip-path="url(#clip0)" fill="#E3CEA3"><path d="M42.29 32.627a.966.966 0 00-.677-.28.966.966 0 00-.677.28.963.963 0 000 1.353c.18.178.425.28.677.28a.966.966 0 00.678-.28.963.963 0 00.279-.676.963.963 0 00-.28-.677zM18.534 16.27H13.94a.957.957 0 00-.957.957v5.359c0 .529.429.957.957.957h4.594a.957.957 0 00.957-.957v-5.36a.957.957 0 00-.957-.956zm-.957 5.36h-2.68v-3.446h2.68v3.445zm9.283-5.36h-4.594a.957.957 0 00-.957.957v5.359c0 .529.428.957.957.957h4.593a.957.957 0 00.957-.957v-5.36a.957.957 0 00-.957-.956zm-.958 5.36h-2.68v-3.446h2.68v3.445zm9.282-5.36h-4.593a.957.957 0 00-.957.957v5.359c0 .529.428.957.957.957h4.593a.957.957 0 00.957-.957v-5.36a.957.957 0 00-.957-.956zm-.957 5.36h-2.68v-3.446h2.68v3.445zm-15.693 4.784H13.94a.957.957 0 00-.957.957v5.36c0 .528.429.956.957.956h4.594a.957.957 0 00.957-.957v-5.359a.957.957 0 00-.957-.957zm-.957 5.36h-2.68v-3.446h2.68v3.445zm9.283-5.36h-4.594a.957.957 0 00-.957.957v5.36c0 .528.428.956.957.956h4.593a.957.957 0 00.957-.957v-5.359a.957.957 0 00-.957-.957zm-.958 5.36h-2.68v-3.446h2.68v3.445zM1.634 38.018a.964.964 0 00-.676-.28.962.962 0 00-.677.28.964.964 0 00-.28.676c0 .252.102.499.28.677.178.178.425.28.677.28a.964.964 0 00.676-.28.964.964 0 00.28-.677.963.963 0 00-.28-.676z"/><path d="M48.042 17.514h-.533l-.273-1.59 1.332-1.298a1.42 1.42 0 00.361-1.464 1.42 1.42 0 00-1.153-.973l-1.84-.267-.823-1.668a1.42 1.42 0 00-1.282-.796 1.42 1.42 0 00-1.28.796l-.824 1.668-1.84.267a1.447 1.447 0 00-.267.066v-.196a.957.957 0 00-.956-.957h-.534l-.273-1.59 1.332-1.298a1.42 1.42 0 00.361-1.465 1.42 1.42 0 00-1.153-.972l-1.84-.268-.823-1.667a1.42 1.42 0 00-1.282-.796 1.42 1.42 0 00-1.28.796l-.824 1.667-1.84.268-.044.008a1.53 1.53 0 00.198-1.353 1.533 1.533 0 00-1.244-1.05l-2.4-.348L25.945.86A1.532 1.532 0 0024.563 0c-.591 0-1.121.33-1.383.86l-1.073 2.175-2.4.348a1.532 1.532 0 00-1.245 1.05 1.53 1.53 0 00.218 1.379 1.476 1.476 0 00-.166-.035l-1.84-.267-.823-1.668a1.42 1.42 0 00-1.28-.796 1.42 1.42 0 00-1.282.796l-.823 1.668-1.84.267a1.42 1.42 0 00-1.153.973 1.42 1.42 0 00.361 1.464l1.332 1.298-.273 1.59h-.557a.957.957 0 00-.957.957v.196a1.448 1.448 0 00-.267-.066l-1.84-.267-.823-1.667a1.42 1.42 0 00-1.281-.797 1.42 1.42 0 00-1.281.797l-.823 1.667-1.84.267a1.42 1.42 0 00-1.153.973 1.42 1.42 0 00.361 1.464l1.332 1.298-.273 1.59H.957a.957.957 0 00-.957.957V34.55a.957.957 0 001.914 0V19.428H9.38v19.67a5.586 5.586 0 00-4.149 2.86 4.168 4.168 0 00-5.22 4.026c0 .976.344 1.925.97 2.673a.96.96 0 00.734.342h46.328a.957.957 0 00.957-.957V18.471a.956.956 0 00-.957-.957zm-5.787-3.735a1.43 1.43 0 001.076-.781l.5-1.015.501 1.014c.208.422.61.714 1.076.782l1.12.163-.81.79c-.337.327-.49.8-.412 1.264l.192 1.115-1.002-.527a1.427 1.427 0 00-1.33 0l-1 .527.191-1.115a1.428 1.428 0 00-.41-1.265l-.811-.79 1.12-.162zm-1.828 2.145l-.272 1.59h-.534v-2.376l.806.786zm-7.55-8.557a1.43 1.43 0 001.075-.781l.501-1.015.5 1.014c.209.422.61.714 1.076.782l1.12.163-.81.79c-.337.327-.49.8-.411 1.264l.191 1.115-1.001-.527a1.427 1.427 0 00-1.33 0l-1 .527.19-1.115a1.429 1.429 0 00-.41-1.265l-.81-.79 1.119-.162zm-3.572-.41c-.078.458.071.925.412 1.257l1.332 1.298-.273 1.59h-1.999c.166-.3.23-.652.17-1.006l-.41-2.39.768-.75zM22.576 4.9a1.542 1.542 0 001.16-.844l.827-1.674.826 1.674c.224.455.658.77 1.16.844l1.848.268-1.337 1.303c-.363.354-.53.864-.443 1.364l.315 1.84-1.652-.869a1.541 1.541 0 00-1.435 0l-1.652.869.316-1.84c.086-.5-.08-1.01-.444-1.364L20.73 5.169l1.847-.268zm2.956 6.2h-1.938l.969-.509.969.51zm-6.226-2.887a1.42 1.42 0 00.385-1.384l.898.876-.41 2.39c-.06.354.003.706.17 1.006h-2.102l-.272-1.59 1.331-1.298zm-6.312-.847a1.43 1.43 0 001.076-.781l.5-1.015.5 1.014c.209.422.611.714 1.077.782l1.12.163-.81.79c-.338.327-.491.8-.412 1.264l.191 1.115-1-.527a1.426 1.426 0 00-1.33 0l-1.002.527.192-1.115a1.429 1.429 0 00-.411-1.265l-.81-.79 1.12-.162zm-5.94 7.364c-.337.329-.49.801-.41 1.265l.19 1.115-1-.527a1.427 1.427 0 00-1.33 0l-1.002.527.192-1.115a1.428 1.428 0 00-.411-1.265l-.81-.79 1.12-.162a1.43 1.43 0 001.075-.781l.5-1.015.501 1.014c.208.422.61.714 1.076.782l1.12.163-.81.79zm1.792 2.783l-.273-1.59.806-.786v2.376h-.533zm7.7 29.571H2.213A2.251 2.251 0 015.27 44.02a.958.958 0 001.377-.534 3.678 3.678 0 013.497-2.526c1.464 0 2.789.866 3.377 2.208.16.367.533.595.933.571.044-.002.088-.004.133-.004a2.251 2.251 0 011.96 3.35zm10.888 0H23.15l1.847-1.847a.957.957 0 10-1.353-1.354l-1.952 1.952v-2.582l.015-.014 4.768-4.768h.959v8.613zm-5.742-6.536v-2.077h2.076l-2.076 2.077zm25.393 6.536h-4.514v-2.411a7.373 7.373 0 004.514-2.371v4.782zm-4.514-4.346v-6.085a.957.957 0 10-1.914 0v6.084a5.48 5.48 0 01-4.515-5.386c0-1.53.647-3 1.776-4.035a.957.957 0 00.31-.681 3.367 3.367 0 013.386-3.299c1.85 0 3.337 1.45 3.385 3.299.006.26.118.505.31.68a5.487 5.487 0 011.776 4.036 5.48 5.48 0 01-4.514 5.387zm4.514-10.345a7.284 7.284 0 00-.199-.213 5.27 5.27 0 00-1.57-3.25 5.27 5.27 0 00-3.702-1.508 5.27 5.27 0 00-3.703 1.508 5.271 5.271 0 00-1.57 3.25 8.15 8.15 0 00-.2.214V27.37a.957.957 0 00-.956-.957H30.59a.957.957 0 00-.957.957v5.36c0 .528.428.956.957.956h4.614a7.395 7.395 0 00-.977 3.666c0 3.747 2.807 6.85 6.428 7.321v2.411H29.348v-9.57a.957.957 0 00-.957-.957h-7.656a.957.957 0 00-.957.957v9.57H18.6a4.169 4.169 0 00-3.61-5.244 5.603 5.603 0 00-3.697-2.675v-26.15h26.414V24.5a.957.957 0 001.914 0v-5.072h7.465v12.966zm-12.857-4.066v3.445h-2.68v-3.445h2.68z"/></g><defs><clipPath id="clip0"><path fill="#fff" d="M0 0h49v49H0z"/></clipPath></defs></svg>