<svg width="114" height="23" fill="none" xmlns="http://www.w3.org/2000/svg"><path d="M11.844.59C11.482.535 10.237.428 8.79.428c-3.027 0-5.102 1.848-5.102 5.236v2.92H.272v3.964h3.415v10.165h4.099V12.55h3.402l.522-3.964H7.786V6.054c0-1.139.308-1.929 1.955-1.929h2.103V.589zm51.563 5.303a8.674 8.674 0 01-2.49.67 4.314 4.314 0 001.901-2.384 8.517 8.517 0 01-2.745 1.044 4.315 4.315 0 00-3.161-1.366 4.324 4.324 0 00-4.326 4.326c0 .335.04.67.107.991a12.296 12.296 0 01-8.92-4.527 4.294 4.294 0 00-.589 2.183c0 1.5.764 2.826 1.929 3.603a4.357 4.357 0 01-1.956-.55v.055a4.326 4.326 0 003.47 4.245 4.57 4.57 0 01-1.14.147c-.28 0-.548-.026-.816-.067a4.333 4.333 0 004.044 3 8.663 8.663 0 01-5.37 1.849 8.94 8.94 0 01-1.045-.054A12.224 12.224 0 0048.943 21c7.955 0 12.308-6.59 12.308-12.308 0-.188 0-.375-.013-.563a9.3 9.3 0 002.17-2.236zm43.307 6.536a3.435 3.435 0 01-3.428 3.428 3.435 3.435 0 01-3.429-3.428A3.435 3.435 0 01103.286 9a3.435 3.435 0 013.428 3.429zm1.848 0a5.27 5.27 0 00-5.276-5.277 5.27 5.27 0 00-5.277 5.277 5.27 5.27 0 005.277 5.276 5.27 5.27 0 005.276-5.276zm1.447-5.492c0-.683-.549-1.232-1.232-1.232a1.23 1.23 0 00-1.232 1.232c0 .684.549 1.233 1.232 1.233a1.23 1.23 0 001.232-1.232zm-6.723-2.946c1.5 0 4.714-.12 6.067.415a3.29 3.29 0 011.178.777c.362.362.59.71.777 1.179.536 1.352.415 4.567.415 6.067s.121 4.714-.415 6.066a3.277 3.277 0 01-.777 1.18c-.361.36-.71.588-1.178.776-1.353.536-4.567.415-6.067.415s-4.715.12-6.067-.415a3.288 3.288 0 01-1.179-.777 3.288 3.288 0 01-.777-1.178c-.535-1.353-.415-4.567-.415-6.067s-.12-4.715.415-6.067c.188-.47.416-.817.777-1.179a3.28 3.28 0 011.179-.777c1.352-.535 4.567-.415 6.067-.415zm10.285 8.438c0-1.42.014-2.826-.067-4.246-.08-1.647-.455-3.107-1.66-4.312-1.206-1.206-2.665-1.58-4.313-1.661-1.419-.08-2.826-.067-4.245-.067-1.42 0-2.826-.014-4.246.067-1.647.08-3.107.455-4.312 1.66-1.206 1.206-1.58 2.666-1.661 4.313-.08 1.42-.067 2.826-.067 4.246 0 1.42-.013 2.825.067 4.245.08 1.647.455 3.107 1.66 4.313 1.206 1.205 2.666 1.58 4.313 1.66 1.42.08 2.826.067 4.246.067 1.419 0 2.826.014 4.245-.067 1.648-.08 3.107-.455 4.313-1.66 1.205-1.206 1.58-2.666 1.66-4.313.081-1.42.067-2.826.067-4.245z" fill="#2D2D2D"/></svg>