<svg width="79" height="53" fill="none" xmlns="http://www.w3.org/2000/svg"><g clip-path="url(#clip0)"><path d="M28.013 45.783h11.865L35.19 32.421h2.3L26.46 0 15.43 32.42h2.3l-4.687 13.363h11.865v4.112h-7.554V53h18.213v-3.105h-7.554v-4.112zm-10.59-3.104l4.687-13.363h-2.344l6.695-19.677 6.694 19.677h-2.343l4.687 13.363h-7.486V27.853h-3.105v14.826h-7.486z" fill="#fff"/></g><g clip-path="url(#clip1)"><path d="M54.085 43.325a41.039 41.039 0 005.184-5.719c3.799-5.077 5.807-10.363 5.807-15.286 0-4.922-2.008-10.208-5.807-15.286C56.443 3.255 53.637.919 53.52.822L52.525 0l-.993.822c-.118.097-2.924 2.433-5.751 6.212-3.799 5.078-5.806 10.364-5.806 15.286 0 4.923 2.007 10.209 5.806 15.286a41.047 41.047 0 005.185 5.719v6.556h-7.589V53h18.296v-3.119h-7.588v-6.556zM43.093 22.32c0-8.399 6.829-15.71 9.434-18.194 2.606 2.48 9.43 9.774 9.43 18.194 0 7.032-4.786 13.3-7.872 16.613V27.74h-3.12v11.2c-3.086-3.305-7.872-9.566-7.872-16.619z" fill="#fff"/></g><defs><clipPath id="clip0"><path fill="#fff" d="M0 0h53v53H0z"/></clipPath><clipPath id="clip1"><path fill="#fff" transform="translate(26)" d="M0 0h53v53H0z"/></clipPath></defs></svg>